<svg xmlns="http://www.w3.org/2000/svg" width="1204" height="900" fill="none"><style><![CDATA[.B{color-interpolation-filters:sRGB}.C{flood-opacity:0}]]></style><g filter="url(#A)"><path d="M592.23 728.174l215.716-154.386c12.637-9.045 18.044-25.178 13.4-40.012l-296.74-949.68c-7.627-24.4-37.56-33.306-57.282-17.025L-313.67 211.86c-12.233 10.1-16.413 27.018-10.292 41.653l101.188 241.914c4.22 10.093 12.803 17.718 23.322 20.723l760.84 217.365a36 36 0 0 0 30.841-5.34z" fill="#a3dcff"/></g><g filter="url(#B)"><path d="M523.7 737.448l217.422-151.973c12.738-8.903 18.324-24.976 13.855-39.86l-286.14-952.928c-7.354-24.493-37.187-33.722-57.088-17.662L-376.39 211.07a36 36 0 0 0-10.755 41.536l98.485 243.026a36 36 0 0 0 23.091 20.982l758.37 225.83a36 36 0 0 0 30.899-4.996z" fill="#b6c1ff"/></g><g filter="url(#C)"><path d="M555.155 716.958L771.468 563.4a36 36 0 0 0 13.565-39.959l-293.05-950.825c-7.532-24.44-37.43-33.452-57.214-17.247l-783.502 641.75c-12.273 10.053-16.52 26.954-10.454 41.613l100.248 242.305c4.183 10.11 12.735 17.768 23.242 20.814l759.992 220.316a36 36 0 0 0 30.861-5.22z" fill="#fff"/></g><defs><filter id="A" x="-395.516" y="-641.305" width="1599.46" height="1544.04" filterUnits="userSpaceOnUse" class="B"><feFlood result="A" class="C"/><feColorMatrix in="SourceAlpha" values="0 0 0 0 0 0 0 0 0 0 0 0 0 0 0 0 0 0 127 0"/><feOffset dx="70" dy="40"/><feGaussianBlur stdDeviation="37"/><feColorMatrix values="0 0 0 0 0.160784 0 0 0 0 0.623529 0 0 0 0 0.905882 0 0 0 0.1 0"/><feBlend in2="A"/><feBlend in="SourceGraphic"/></filter><filter id="B" x="-531.011" y="-645.508" width="1607.63" height="1553.32" filterUnits="userSpaceOnUse" class="B"><feFlood result="A" class="C"/><feColorMatrix in="SourceAlpha" values="0 0 0 0 0 0 0 0 0 0 0 0 0 0 0 0 0 0 127 0"/><feOffset dy="34"/><feGaussianBlur stdDeviation="37"/><feColorMatrix values="0 0 0 0 0.227451 0 0 0 0 0.345098 0 0 0 0 0.976471 0 0 0 0.1 0"/><feBlend in2="A"/><feBlend in="SourceGraphic"/></filter><filter id="C" x="-427.548" y="-621.144" width="1454.33" height="1399.29" filterUnits="userSpaceOnUse" class="B"><feFlood class="C"/><feBlend in="SourceGraphic" result="B"/><feColorMatrix in="SourceAlpha" values="0 0 0 0 0 0 0 0 0 0 0 0 0 0 0 0 0 0 127 0" result="C"/><feOffset/><feGaussianBlur stdDeviation="7"/><feComposite in2="C" operator="arithmetic" k2="-1" k3="1"/><feColorMatrix values="0 0 0 0 0 0 0 0 0 0 0 0 0 0 0 0 0 0 0.05 0"/><feBlend in2="B"/></filter></defs></svg>