<svg width="23" height="23" viewBox="0 0 23 23" fill="none" xmlns="http://www.w3.org/2000/svg">
    <path d="M22.356 23H0.644C0.2852 23 0 22.7148 0 22.356V0.644C0 0.2852 0.2852 0 0.644 0H22.356C22.7148 0 23 0.2852 23 0.644V22.356C23 22.7148 22.7148 23 22.356 23ZM0.92 22.08H22.08V0.92H0.92V22.08Z" fill="#ff9b9b"/>
    <path d="M16.56 6.8816C16.56 6.7528 16.5232 6.6516 16.4404 6.5688C16.3484 6.4768 16.2472 6.44 16.1184 6.44C15.9896 6.44 15.8884 6.486 15.8056 6.5688L11.5 10.8744L7.2036 6.578C7.1116 6.486 7.0104 6.4492 6.8816 6.4492C6.7528 6.4492 6.6516 6.4952 6.5688 6.578C6.4768 6.6608 6.44 6.762 6.44 6.8908C6.44 7.0196 6.486 7.1208 6.5688 7.2128L10.8652 11.5092L6.5688 15.8056C6.4768 15.8976 6.44 15.9988 6.44 16.1184C6.44 16.2472 6.486 16.3484 6.5688 16.4404C6.6608 16.5232 6.762 16.56 6.8816 16.56C7.0104 16.56 7.1116 16.514 7.2036 16.4312L11.5 12.1348L15.8056 16.4404C15.8884 16.5232 15.9896 16.56 16.1184 16.56C16.2472 16.56 16.3484 16.5232 16.4404 16.4404C16.5232 16.3484 16.56 16.2472 16.56 16.1184C16.56 15.9896 16.5232 15.8884 16.4404 15.8056L12.1348 11.5092L16.4404 7.2128C16.5232 7.1208 16.56 7.0104 16.56 6.8816Z" fill="#ff9b9b"/>
</svg>
