<svg width="25" height="23" viewBox="0 0 25 23" fill="none" xmlns="http://www.w3.org/2000/svg">
    <path d="M22.0338 7.62709C21.7995 7.62709 21.6101 7.81649 21.6101 8.05081V21.6101H0.847454V0.847454H21.6101V1.27118C21.6101 1.5055 21.7995 1.69491 22.0338 1.69491C22.2681 1.69491 22.4575 1.5055 22.4575 1.27118V0H0V22.4575H22.4575V8.05081C22.4575 7.81649 22.2681 7.62709 22.0338 7.62709Z" fill="#ba73db"/>
    <path d="M24.8757 1.81907C24.7101 1.65339 24.4423 1.65339 24.2766 1.81907L11.4406 14.655L5.90252 9.11692C5.73684 8.95124 5.46904 8.95124 5.30337 9.11692C5.13769 9.2826 5.13769 9.55039 5.30337 9.71607L11.1411 15.5538C11.2237 15.6364 11.3322 15.6779 11.4406 15.6779C11.5491 15.6779 11.6576 15.6364 11.7402 15.5538L24.8757 2.41822C25.0414 2.25254 25.0414 1.98474 24.8757 1.81907Z" fill="#ba73db"/>
</svg>
