<svg width="9" height="14" viewBox="0 0 9 14" fill="none" xmlns="http://www.w3.org/2000/svg">
<path d="M4.644 0.68C5.844 0.68 6.804 1.004 7.524 1.652C8.244 2.3 8.604 3.2 8.604 4.352C8.604 5.6 8.214 6.542 7.434 7.178C6.666 7.802 5.616 8.126 4.284 8.15V10.13H2.34V6.782H3.204C4.248 6.782 5.07 6.614 5.67 6.278C6.27 5.93 6.57 5.294 6.57 4.37C6.57 3.746 6.39 3.26 6.03 2.912C5.67 2.552 5.184 2.372 4.572 2.372C3.924 2.372 3.402 2.558 3.006 2.93C2.61 3.302 2.412 3.788 2.412 4.388H0.45C0.438 3.668 0.6 3.032 0.936 2.48C1.272 1.916 1.758 1.478 2.394 1.166C3.03 0.842 3.78 0.68 4.644 0.68ZM4.5 11.732V14H2.16V11.732H4.5Z" fill="#DE183C"/>
</svg>
