<?xml version="1.0" encoding="utf-8"?>
<svg viewBox="0 0 600 600" xmlns="http://www.w3.org/2000/svg">
  <path stroke-width="0" d="M 177.042 48.521 C 179.47 44.61 184.552 39.445 186.549 37.606 C 187.545 36.689 187.793 36.824 188.662 36.197 C 189.869 35.327 192.305 33.592 193.239 32.676 C 193.82 32.107 193.35 32.035 194.296 31.268 C 197.285 28.843 211.742 19.194 221.056 15.07 C 230.185 11.029 244.539 10.292 249.577 6.62 C 252.676 4.361 252.731 0.202 253.803 -1.127 C 254.365 -1.824 254.342 -1.692 255.211 -2.183 C 257.132 -3.267 261.602 -6.434 266.831 -7.465 C 274.219 -8.921 288.589 -8.106 297.113 -7.465 C 304.009 -6.946 307.093 -6.874 314.718 -4.648 C 326.286 -1.271 355.756 10.747 361.549 14.366 C 363.029 15.291 363.079 15.513 363.412 16.173 C 368.76 16.762 374.767 17.882 379.507 19.296 C 383.114 20.371 387.505 22.328 391.414 24.27 C 392.434 23.952 393.602 23.684 395 23.521 C 406.391 22.192 432.465 22.497 449.93 23.521 C 466.41 24.487 485.758 26.273 497.113 29.155 C 504.944 31.142 511.862 34.704 514.366 36.549 C 515.491 37.378 515.145 37.248 515.775 38.662 C 516.827 41.023 517.975 47.281 519.924 53.597 C 521.986 55.371 523.035 57.761 524.225 61.197 C 524.574 62.204 524.885 63.215 525.165 64.269 C 527.558 65.615 529.429 66.743 530.563 67.535 C 532.913 69.176 532.377 70.153 533.38 71.056 C 534.269 71.855 535.531 72.22 536.197 72.817 C 536.714 73.28 536.92 73.682 537.254 74.225 C 537.629 74.836 537.782 75.81 538.31 76.338 C 538.838 76.866 539.615 76.651 540.423 77.394 C 541.776 78.641 543.897 81.204 545.352 84.437 C 547.349 88.873 549.346 96.601 550.282 102.746 C 550.33 103.059 550.37 103.374 550.405 103.691 C 552.648 111.891 553.832 120.455 553.132 125.746 C 554.857 128.493 557.066 131.03 558.732 135.141 C 562.237 143.79 566.553 166.008 568.944 170 C 569.768 171.377 570.312 170.949 571.056 171.408 C 571.834 171.889 572.876 172.171 573.521 172.817 C 574.167 173.462 574.163 173.94 574.93 175.282 C 576.5 178.03 581.658 183.906 583.38 190.07 C 585.488 197.612 584.804 209.068 584.789 218.239 C 584.774 227.13 585.379 237.687 583.38 244.296 C 583.131 245.119 582.854 245.919 582.551 246.693 C 582.65 246.848 582.787 247.076 583.028 247.465 C 585.367 251.229 598.06 269.979 601.69 280.915 C 604.942 290.712 606.821 300.837 605.211 309.789 C 603.64 318.529 597.917 328.166 592.535 334.085 C 587.797 339.295 578.819 339.504 575.634 344.648 C 572.388 349.888 574.972 358.387 573.521 365.423 C 571.997 372.812 569.877 380.11 566.479 387.958 C 566.258 388.468 566.022 388.998 565.772 389.547 C 566.05 399.356 565.725 409.696 564.366 416.831 C 562.523 426.506 559.607 432.002 554.507 440.07 C 548.349 449.813 535.482 463.396 528.099 470.704 C 522.786 475.963 516.302 480.058 514.366 481.972 C 513.598 482.731 513.888 482.682 513.31 483.38 C 512.226 484.689 510.808 486.513 507.676 489.718 C 501.553 495.986 478.679 516.854 474.93 521.056 C 473.746 522.383 474.599 521.874 473.521 523.169 C 470.429 526.882 457.467 542.989 449.225 548.873 C 442.284 553.829 436.804 555.832 428.099 558.028 C 419.466 560.206 406.447 560.332 395.534 561.263 C 395.122 561.361 394.709 561.456 394.296 561.549 C 389.862 562.549 384.274 563.215 378.169 563.714 C 372.488 564.668 367.383 565.806 361.197 568.592 C 349.95 573.656 331.815 586.913 324.93 592.887 C 321.035 596.267 321.05 598.943 318.239 600.986 C 315.337 603.095 311.322 604.508 307.676 605.211 C 304.044 605.911 301.475 606.859 296.408 605.211 C 287.588 602.342 266.105 589.913 258.028 581.62 C 251.976 575.406 252.246 565.293 247.817 562.254 C 244.255 559.81 240.139 560.275 235.141 561.549 C 228.186 563.322 217.627 573.193 209.789 575.634 C 203.26 577.667 196.934 578.019 191.479 577.042 C 186.474 576.147 182.471 573.735 178.099 570.704 C 173.175 567.291 169.333 563.145 163.662 556.972 C 155.804 548.417 144.454 529.58 135.141 522.113 C 127.984 516.374 122.413 515.278 114.014 512.254 C 103.81 508.58 88.426 507.798 77.394 502.394 C 66.508 497.062 54.469 487.695 48.169 480.211 C 47.054 478.886 46.121 477.687 45.321 476.525 C 40.475 473.348 36.457 470.043 34.085 466.127 C 30.678 460.502 30.566 453.271 31.268 447.113 C 31.779 442.627 34.46 436.395 36.475 432.436 C 35.81 421.59 35.238 411.211 34.085 406.268 C 32.914 401.253 32.668 400.092 30.211 397.465 C 27.123 394.163 19.925 392.455 15.423 389.014 C 10.879 385.542 6.435 382.02 3.099 376.69 C -0.739 370.56 -4.063 360.464 -5.352 353.451 C -6.441 347.529 -6.521 343.991 -5.352 337.254 C -3.699 327.725 4.934 310.426 6.62 300.634 C 7.852 293.475 7.746 289.633 6.62 283.028 C 5.245 274.969 -0.478 267.479 -2.535 255.563 C -5.387 239.041 -6.982 203.075 -5.352 190.07 C -4.467 183.006 -3.053 181.555 -0.423 176.69 C 2.856 170.628 12.016 159.079 14.014 156.62 C 14.664 155.819 14.612 155.889 15.07 155.563 C 15.621 155.173 16.642 154.952 17.183 154.507 C 17.664 154.111 17.796 153.713 18.239 153.099 C 18.874 152.221 19.262 151.035 20.704 149.577 C 23.148 147.107 31.542 141.483 33.38 139.718 C 34.14 138.989 34.103 138.853 34.437 138.31 C 34.812 137.699 34.696 137.071 35.493 136.197 C 36.985 134.561 42.354 131.449 44.648 129.507 C 46.362 128.055 47.206 126.825 48.521 125.634 C 49.79 124.485 50.922 124.652 52.394 122.465 C 55.396 118.007 59.5 102.219 63.662 95 C 67.034 89.151 72.522 83.214 74.577 81.268 C 75.449 80.443 75.619 80.839 76.338 80.211 C 77.512 79.186 79.672 76.056 80.915 74.93 C 81.745 74.178 81.844 74.299 83.028 73.521 C 85.549 71.866 91.652 66.871 97.113 64.366 C 103.202 61.573 109.024 59.816 118.239 58.028 C 131.267 55.501 152.419 53.352 170.352 52.394 C 171.826 52.315 173.362 52.241 174.948 52.171 C 175.599 50.92 176.314 49.694 177.042 48.521 Z" style="stroke-width: 2px; stroke: rgb(0, 0, 0);"/>
</svg>