<?xml version="1.0" encoding="utf-8"?>
<svg viewBox="0 0 600 600" xmlns="http://www.w3.org/2000/svg">
  <path d="M 526.883 95.014 C 515.176 74.719 493.949 63.365 472.113 63.349 L 472.117 63.346 C 450.279 63.326 429.049 51.973 417.346 31.681 C 399.884 1.395 361.208 -8.979 330.959 8.508 L 330.954 8.511 L 330.954 8.492 C 312.166 19.329 288.323 20.187 268.143 8.73 C 258.431 2.998 247.359 -0.017 236.085 0 C 212.679 0 192.246 12.733 181.309 31.658 L 181.309 31.654 C 170.375 50.576 149.937 63.308 126.534 63.308 C 91.607 63.308 63.294 91.654 63.294 126.624 L 63.294 126.631 L 63.275 126.624 C 63.256 148.32 52.088 169.412 32.113 181.186 C 22.284 186.739 14.129 194.837 8.501 204.63 C -3.203 224.927 -2.407 249.008 8.498 267.953 L 8.494 267.953 C 19.39 286.893 20.185 310.977 8.482 331.272 C -8.979 361.553 1.381 400.276 31.63 417.762 L 31.634 417.766 L 31.622 417.774 C 50.525 428.717 63.237 449.179 63.237 472.613 C 63.237 507.583 91.548 535.929 126.476 535.929 C 149.883 535.929 170.313 548.659 181.253 567.584 C 192.187 586.501 212.624 599.24 236.028 599.24 C 247.302 599.254 258.373 596.239 268.085 590.509 C 288.261 579.054 312.11 579.912 330.897 590.752 L 330.897 590.73 L 330.901 590.737 C 361.15 608.22 399.826 597.842 417.293 567.56 C 428.995 547.269 450.222 535.913 472.059 535.898 L 472.054 535.889 C 493.891 535.874 515.122 524.518 526.821 504.227 C 532.582 494.236 535.317 483.324 535.305 472.563 L 535.314 472.57 C 535.333 451.482 545.886 430.956 564.826 419.014 C 575.036 413.639 583.896 405.404 590.086 394.668 C 601.794 374.365 600.998 350.282 590.095 331.341 L 590.098 331.341 C 579.2 312.401 578.402 288.317 590.107 268.021 C 607.573 237.735 597.207 199.017 566.958 181.53 L 566.954 181.525 L 566.966 181.522 C 548.215 170.66 535.556 150.436 535.357 127.235 C 535.467 116.287 532.74 105.176 526.883 95.014" style="stroke: rgb(0, 0, 0);"/>
</svg>